HIERARCHY
ROOT Hips
{
	OFFSET -0.001795 -0.223333 0.028219
	CHANNELS 6 Xposition Yposition Zposition Zrotation Yrotation Xrotation 
	JOINT LeftUpLeg
	{
		OFFSET 0.069520 -0.091406 -0.006815
		CHANNELS 3 Zrotation Yrotation Xrotation
		JOINT LeftLeg
		{
			OFFSET 0.034277 -0.375199 -0.004496
			CHANNELS 3 Zrotation Yrotation Xrotation
			JOINT LeftFoot
			{
				OFFSET -0.013596 -0.397961 -0.043693
				CHANNELS 3 Zrotation Yrotation Xrotation
				JOINT LeftToe
				{
					OFFSET 0.026358 -0.055791 0.119288
					CHANNELS 3 Zrotation Yrotation Xrotation
					End Site
					{
						OFFSET 0.000000 0.000000 0.000000
					}
				}
			}
		}
	}
	JOINT RightUpLeg
	{
		OFFSET -0.067670 -0.090522 -0.004320
		CHANNELS 3 Zrotation Yrotation Xrotation
		JOINT RightLeg
		{
			OFFSET -0.038290 -0.382569 -0.008850
			CHANNELS 3 Zrotation Yrotation Xrotation
			JOINT RightFoot
			{
				OFFSET 0.015774 -0.398415 -0.042312
				CHANNELS 3 Zrotation Yrotation Xrotation
				JOINT RightToe
				{
					OFFSET -0.025372 -0.048144 0.123348
					CHANNELS 3 Zrotation Yrotation Xrotation
					End Site
					{
						OFFSET 0.000000 0.000000 0.000000
					}
				}
			}
		}
	}
	JOINT Spine
	{
		OFFSET -0.002533 0.108963 -0.026696
		CHANNELS 3 Zrotation Yrotation Xrotation
		JOINT Spine1
		{
			OFFSET 0.005487 0.135180 0.001092
			CHANNELS 3 Zrotation Yrotation Xrotation
			JOINT Spine2
			{
				OFFSET 0.001457 0.052922 0.025425
				CHANNELS 3 Zrotation Yrotation Xrotation
				JOINT Neck
				{
					OFFSET -0.002778 0.213870 -0.042857
					CHANNELS 3 Zrotation Yrotation Xrotation
					JOINT Head
					{
						OFFSET 0.005152 0.064970 0.051349
						CHANNELS 3 Zrotation Yrotation Xrotation
						End Site
						{
							OFFSET 0.000000 0.000000 0.000000
						}
					}
				}
				JOINT LeftShoulder
				{
					OFFSET 0.078845 0.121749 -0.034090
					CHANNELS 3 Zrotation Yrotation Xrotation
					JOINT LeftArm
					{
						OFFSET 0.090977 0.030469 -0.008868
						CHANNELS 3 Zrotation Yrotation Xrotation
						JOINT LeftForeArm
						{
							OFFSET 0.259612 -0.012772 -0.027456
							CHANNELS 3 Zrotation Yrotation Xrotation
							JOINT LeftHand
							{
								OFFSET 0.249234 0.008986 -0.001171
								CHANNELS 3 Zrotation Yrotation Xrotation
								End Site
								{
									OFFSET 0.000000 0.000000 0.000000
								}
							}
						}
					}
				}
				JOINT RightShoulder
				{
					OFFSET -0.081759 0.118833 -0.038615
					CHANNELS 3 Zrotation Yrotation Xrotation
					JOINT RightArm
					{
						OFFSET -0.096012 0.032551 -0.009143
						CHANNELS 3 Zrotation Yrotation Xrotation
						JOINT RightForeArm
						{
							OFFSET -0.253742 -0.013329 -0.021401
							CHANNELS 3 Zrotation Yrotation Xrotation
							JOINT RightHand
							{
								OFFSET -0.255298 0.007772 -0.005559
								CHANNELS 3 Zrotation Yrotation Xrotation
								End Site
								{
									OFFSET 0.000000 0.000000 0.000000
								}
							}
						}
					}
				}
			}
		}
	}
}
MOTION
Frames: 10
Frame Time: 0.050000
-0.025167 0.942005 -0.009191 -2.857781 -9.902111 2.456751 7.604421 0.207441 4.252811 0.232937 0.183115 -5.700642 7.273373 15.539176 12.871925 0.000000 0.000000 0.000000 -0.573482 -0.380732 4.925936 2.442166 -0.286426 -12.881392 -1.741221 -10.461205 15.443990 0.000000 0.000000 0.000000 11.834248 -0.262843 1.365452 -7.735511 2.381169 -22.608484 0.706136 10.407275 30.769673 9.730326 -2.272320 -33.055723 0.000000 0.000000 0.000000 -36.817363 -10.134746 3.144852 -31.042573 -2.531137 -4.170161 2.580915 -26.852941 0.446500 0.000000 0.000000 0.000000 41.122254 -4.219906 -4.373955 44.591147 3.620723 -5.965442 -6.452308 30.721566 0.225184 0.000000 0.000000 0.000000 
-0.028143 0.940949 -0.007822 -2.692734 -9.911832 2.196955 7.501394 0.162167 2.904793 0.422443 0.040811 -2.626074 7.478772 15.853248 12.049884 0.000000 0.000000 0.000000 -0.458603 -0.433132 5.474143 2.233914 -0.291510 -13.186188 -1.802406 -10.438457 15.029709 0.000000 0.000000 0.000000 11.803748 -0.381689 2.248638 -7.901386 2.410476 -23.105689 0.894899 10.328286 30.913828 9.343455 -2.120881 -32.877765 0.000000 0.000000 0.000000 -37.199774 -10.272880 3.290274 -30.339291 -2.891558 -4.022416 3.324281 -27.465112 0.277942 0.000000 0.000000 0.000000 41.698315 -3.751543 -4.079271 43.772593 4.167028 -5.717586 -5.952573 30.433506 0.317156 0.000000 0.000000 0.000000 
-0.030920 0.939858 -0.005864 -2.782799 -9.729997 2.085994 7.992897 0.071695 0.057226 0.047783 -0.081001 2.886823 7.655599 16.132039 10.983485 0.000000 0.000000 0.000000 -0.317688 -0.486919 5.969001 2.468125 -0.286277 -13.501656 -1.913776 -10.507781 14.743555 0.000000 0.000000 0.000000 11.920616 -0.514373 3.171834 -7.594503 2.331377 -23.223664 0.864031 10.510629 30.771309 9.080009 -1.972025 -32.575761 0.000000 0.000000 0.000000 -37.773057 -10.581615 3.311186 -29.361596 -3.017313 -3.809551 3.237842 -27.912974 0.285974 0.000000 0.000000 0.000000 42.327483 -2.997434 -3.294275 42.882688 4.833678 -5.482544 -6.705987 30.317659 0.128676 0.000000 0.000000 0.000000 
-0.033317 0.939563 -0.003088 -2.884518 -10.018859 2.428821 9.057319 0.041962 -3.622887 -1.461270 0.136448 9.197604 7.891858 16.466084 10.988713 0.000000 0.000000 0.000000 -0.101508 -0.463096 5.428633 2.458263 -0.284638 -12.842857 -1.876889 -10.333206 14.233518 0.000000 0.000000 0.000000 12.120641 -0.630473 3.876081 -7.866138 2.384208 -23.482752 1.156559 10.407444 30.194942 8.274892 -1.674151 -31.922301 0.000000 0.000000 0.000000 -38.450210 -9.877133 2.860975 -28.374266 -2.091260 -3.859687 3.241807 -29.698340 0.301371 0.000000 0.000000 0.000000 41.707105 -2.541254 -3.041185 42.546639 5.049024 -5.282543 -5.458977 29.749078 0.365258 0.000000 0.000000 0.000000 
-0.035197 0.939705 0.001863 -2.599978 -10.757207 2.106207 9.473101 0.084477 -6.302697 -3.596465 0.595289 8.420881 17.571165 27.122832 31.822243 0.000000 0.000000 0.000000 -0.479330 -0.479853 6.245385 2.562725 -0.261166 -13.250444 -1.517123 -9.759112 14.130472 0.000000 0.000000 0.000000 11.970297 -0.738941 4.832958 -7.669097 2.306421 -24.184520 1.812122 12.054599 30.574746 7.763532 -1.208818 -31.905960 0.000000 0.000000 0.000000 -39.493766 -10.135929 2.292770 -27.442553 -1.100501 -3.747503 2.627278 -30.984256 0.438796 0.000000 0.000000 0.000000 42.743254 -3.067975 -2.838338 40.654314 6.325088 -4.989314 -4.536004 29.630455 0.617174 0.000000 0.000000 0.000000 
-0.036654 0.940027 0.009896 -2.229086 -11.690713 1.498693 9.320666 0.115693 -8.476050 -3.955324 0.569654 2.776527 48.411537 35.161942 86.129385 0.000000 0.000000 0.000000 -0.909905 -0.498267 7.402175 2.410104 -0.243559 -13.434541 -1.096388 -9.050211 13.900210 0.000000 0.000000 0.000000 11.456444 -0.849289 6.049491 -6.845194 2.080897 -24.823268 1.506004 12.679793 30.644847 8.065376 -1.283311 -32.478916 0.000000 0.000000 0.000000 -39.039081 -8.340672 0.877757 -28.414223 0.043192 -4.119035 1.593173 -33.185675 0.785032 0.000000 0.000000 0.000000 41.525282 -2.734209 -2.399658 41.808353 6.384969 -5.083438 -4.486066 29.869507 0.662194 0.000000 0.000000 0.000000 
-0.037510 0.939359 0.020329 -1.720257 -12.128721 0.976152 8.944768 0.108151 -10.253235 -3.765410 0.521192 0.674467 65.257933 30.445871 113.903661 0.000000 0.000000 0.000000 -1.292775 -0.523583 8.750542 1.845034 -0.253308 -13.860299 -0.972660 -8.733977 13.507432 0.000000 0.000000 0.000000 11.040260 -0.902311 6.795333 -7.243222 2.182570 -24.521198 1.854732 13.312077 30.022645 7.336194 -0.884944 -31.968073 0.000000 0.000000 0.000000 -39.318733 -7.816900 0.135042 -28.358655 1.150448 -4.219958 0.196668 -33.719407 1.190003 0.000000 0.000000 0.000000 41.628036 -2.932128 -2.377135 41.848312 5.824912 -5.279925 -3.836724 29.542578 0.810351 0.000000 0.000000 0.000000 
-0.037443 0.937191 0.032910 -1.520032 -13.258363 0.655258 8.774861 0.138187 -11.230719 -4.024963 0.640868 4.820737 63.062900 30.295745 114.021512 0.000000 0.000000 0.000000 -1.081666 -0.569100 9.538852 0.467635 -0.287519 -13.489468 -0.716721 -7.986704 12.347928 0.000000 0.000000 0.000000 10.419139 -0.934876 7.530421 -7.006215 2.099995 -24.963142 2.073731 14.785715 30.311595 7.972468 -1.057743 -32.231082 0.000000 0.000000 0.000000 -38.790474 -7.346333 -0.615809 -28.900028 2.311969 -4.461225 0.083202 -34.635649 1.227326 0.000000 0.000000 0.000000 41.424203 -3.733432 -2.591056 42.428760 5.924138 -5.458065 -2.633219 29.331395 1.145784 0.000000 0.000000 0.000000 
-0.036072 0.934332 0.047735 -1.032794 -13.561920 0.058979 8.864399 0.181295 -11.975955 -5.562914 1.113755 8.835806 32.198386 35.570761 50.741734 0.000000 0.000000 0.000000 -1.426978 -0.593697 11.318737 -0.543268 -0.324427 -14.088896 -0.793615 -7.837081 11.580160 0.000000 0.000000 0.000000 9.461379 -0.990779 8.760937 -7.391113 2.199705 -25.126645 2.549750 15.499979 30.316021 7.795594 -0.825762 -32.594920 0.000000 0.000000 0.000000 -38.264275 -6.622455 -1.466287 -29.723953 3.047522 -4.665302 0.544479 -35.056911 1.074213 0.000000 0.000000 0.000000 41.382766 -4.796729 -3.160538 43.391965 5.284661 -5.833678 -2.386295 30.369261 1.343181 0.000000 0.000000 0.000000 
-0.033329 0.930911 0.064419 -0.900401 -14.336705 -0.015625 8.777411 0.209503 -12.698162 -1.743646 0.332489 -5.018980 28.607651 31.669725 55.005950 0.000000 0.000000 0.000000 -2.040501 -0.518360 12.589584 -0.727749 -0.320818 -14.579867 -0.643594 -7.320243 10.848121 0.000000 0.000000 0.000000 8.499141 -0.948882 9.085634 -7.206558 2.141498 -24.963627 2.521846 16.368896 30.445612 9.279401 -1.419855 -33.451804 0.000000 0.000000 0.000000 -37.262222 -6.959206 -1.256562 -31.100833 3.377311 -4.960988 1.392432 -33.724959 0.769034 0.000000 0.000000 0.000000 41.642537 -4.345433 -2.584193 43.760911 5.104825 -6.011278 -2.704391 31.288265 1.346830 0.000000 0.000000 0.000000 
